<?xml version="1.0" encoding="UTF-8"?><svg xmlns="http://www.w3.org/2000/svg" xmlns:xlink="http://www.w3.org/1999/xlink" viewBox="0 0 53.68 41.44"><defs><style>.e {
  fill: url("#d");
  stroke: #fff;
  stroke-miterlimit: 10;
}

.f {
  fill: #f0e8e6;
}

</style><radialGradient id="d" cx="-3.87" cy="10.51" fx="-3.87" fy="10.51" r="31.34" gradientTransform="matrix(1, 0, 0, 1, 0, 0)" gradientUnits="userSpaceOnUse"><stop offset="0" stop-color="#fff"></stop><stop offset="1" stop-color="#b92423"></stop></radialGradient></defs><g id="a"></g><g id="b"><g id="c"><g><path class="e" d="M22.02,4.1l-5.57,11.4H1.01s-.51,.18-.51,.93,1.13,2.03,2.22,2.05l3.63,20.39s.69,2.06,2.75,2.06l35.54,.02s2.46-.12,2.85-2.79,3.48-19.69,3.48-19.69c0,0,2.21-.46,2.2-2.04,0,0,.11-.9-.7-.9l-15.19-.02-5.56-11.39-.11-.35s.98-3.84-3.17-3.17c0,0-1.46,.53-1.46,2.06h-.25s.02-2.17-2.41-2.14-2.78,2.3-2.32,3.21l.02,.39Z"></path><g><polygon class="f" points="8.16 20.52 9.04 25.82 14.15 25.82 13.64 20.52 8.16 20.52"></polygon><polygon class="f" points="18.73 20.52 24.35 20.52 24.35 25.82 19.17 25.82 18.73 20.52"></polygon><polygon class="f" points="29.32 20.52 29.32 25.82 34.61 25.82 34.94 20.52 29.32 20.52"></polygon><polygon class="f" points="39.98 20.52 39.54 25.82 44.58 25.82 45.56 20.52 39.98 20.52"></polygon><polygon class="f" points="9.95 30.74 14.54 30.74 15.04 35.92 10.84 35.92 9.95 30.74"></polygon><polygon class="f" points="19.63 30.74 20.1 35.92 24.35 35.92 24.35 30.74 19.63 30.74"></polygon><polygon class="f" points="29.32 30.74 29.32 35.92 33.62 35.92 34.01 30.74 29.32 30.74"></polygon><polygon class="f" points="39.05 30.72 38.66 35.92 42.85 35.92 43.7 30.74 39.05 30.72"></polygon></g><path class="f" d="M20.03,15.51h13.59l-4.92-10.15s-1.77-.93-1.78-1.86h-.19s-.72,1.77-1.75,1.79l-4.95,10.22Z"></path></g></g></g></svg>