<?xml version="1.0" encoding="UTF-8"?><svg xmlns="http://www.w3.org/2000/svg" xmlns:xlink="http://www.w3.org/1999/xlink" viewBox="0 0 298.56 110.82"><defs><style>.m {
  fill: url("#f");
}

.n {
  fill: url("#j");
  stroke: url("#k");
  stroke-miterlimit: 10;
  stroke-width: .9px;
}

.o {
  fill: url("#g");
}

.p {
  fill: url("#i");
}

.q {
  fill: url("#h");
}

.r {
  fill: url("#d");
}

.s {
  fill: url("#e");
}

.t {
  fill: url("#l");
  isolation: isolate;
  opacity: .25;
}

.u {
  fill: #010101;
}

</style><linearGradient id="d" x1="134.71" y1="456.46" x2="153.9" y2="456.46" gradientTransform="translate(0 478.35) scale(1 -1)" gradientUnits="userSpaceOnUse"><stop offset="0" stop-color="#b0b0af"></stop><stop offset=".02" stop-color="#9c9b9b"></stop><stop offset=".07" stop-color="#777778"></stop><stop offset=".13" stop-color="#585858"></stop><stop offset=".2" stop-color="#3b3b3b"></stop><stop offset=".27" stop-color="#252525"></stop><stop offset=".35" stop-color="#141414"></stop><stop offset=".45" stop-color="#090a0a"></stop><stop offset=".6" stop-color="#020303"></stop><stop offset="1" stop-color="#010101"></stop></linearGradient><linearGradient id="e" x1="136.48" y1="454.57" x2="151.96" y2="454.57" xlink:href="#d"></linearGradient><linearGradient id="f" x1="135.95" y1="456.24" x2="152.67" y2="456.24" xlink:href="#d"></linearGradient><linearGradient id="g" x1="138.11" y1="455.63" x2="151.51" y2="455.63" xlink:href="#d"></linearGradient><linearGradient id="h" x1="141.22" y1="455.36" x2="148.14" y2="455.36" xlink:href="#d"></linearGradient><linearGradient id="i" x1="141.96" y1="455.3" x2="146.43" y2="455.3" xlink:href="#d"></linearGradient><linearGradient id="j" x1="140.98" y1="416.65" x2="147.41" y2="416.65" gradientTransform="translate(0 478.35) scale(1 -1)" gradientUnits="userSpaceOnUse"><stop offset="0" stop-color="#cfcece"></stop><stop offset=".04" stop-color="#d2aaaf"></stop><stop offset=".09" stop-color="#d68790"></stop><stop offset=".15" stop-color="#da6675"></stop><stop offset=".21" stop-color="#de4c5e"></stop><stop offset=".28" stop-color="#e1344b"></stop><stop offset=".36" stop-color="#e3273d"></stop><stop offset=".46" stop-color="#e31b32"></stop><stop offset=".61" stop-color="#e4172e"></stop><stop offset="1" stop-color="#e4172c"></stop></linearGradient><linearGradient id="k" x1="140.53" y1="416.65" x2="147.86" y2="416.65" gradientTransform="translate(0 478.35) scale(1 -1)" gradientUnits="userSpaceOnUse"><stop offset="0" stop-color="#f6f6f6" stop-opacity=".9"></stop><stop offset="0" stop-color="#f6f4f3" stop-opacity=".9"></stop><stop offset=".04" stop-color="#f5d5ce" stop-opacity=".9"></stop><stop offset=".09" stop-color="#f2b6a8" stop-opacity=".91"></stop><stop offset=".14" stop-color="#ef9889" stop-opacity=".91"></stop><stop offset=".19" stop-color="#ed7c6e" stop-opacity=".92"></stop><stop offset=".25" stop-color="#e96358" stop-opacity=".92"></stop><stop offset=".32" stop-color="#e84a48" stop-opacity=".93"></stop><stop offset=".39" stop-color="#e6393e" stop-opacity=".94"></stop><stop offset=".49" stop-color="#e62c36" stop-opacity=".95"></stop><stop offset=".62" stop-color="#e52032" stop-opacity=".96"></stop><stop offset="1" stop-color="#e51e32"></stop></linearGradient><radialGradient id="l" cx="560.33" cy="2490.56" fx="560.33" fy="2490.56" r="79.07" gradientTransform="translate(-603.19 419.4) scale(1.34 -.13)" gradientUnits="userSpaceOnUse"><stop offset="0" stop-color="#010101"></stop><stop offset=".35" stop-color="#7f807f" stop-opacity=".82"></stop><stop offset=".8" stop-color="#ddd" stop-opacity=".58"></stop><stop offset="1" stop-color="#fff" stop-opacity=".47"></stop></radialGradient></defs><g id="a"></g><g id="b"><g id="c"><g><path class="u" d="M122.78,79.28c-.11-.11-.16-.24-.16-.41v-16.3c0-.18,.05-.33,.16-.44,.11-.11,.24-.16,.41-.16h1.25c.18,0,.33,.05,.44,.16,.11,.11,.16,.25,.16,.44v6.19l6.67-6.39c.26-.26,.59-.4,.98-.4h1.35c.13,0,.25,.05,.35,.15s.15,.22,.15,.35-.03,.24-.1,.32l-7.72,7.54,8.21,8.26c.09,.1,.13,.22,.13,.35s-.05,.25-.15,.35-.22,.15-.35,.15h-1.4c-.37,0-.69-.14-.98-.42l-7.14-7.02v6.86c0,.16-.06,.3-.18,.41s-.26,.16-.42,.16h-1.25c-.16,0-.3-.05-.4-.16Z"></path><g><path class="u" d="M46.34,56.47c-.11-.11-.16-.24-.16-.41v-16.33c0-.16,.05-.3,.16-.41,.11-.11,.24-.16,.41-.16h1.33c.16,0,.3,.05,.41,.16,.11,.11,.16,.24,.16,.41v16.33c0,.16-.05,.3-.16,.41-.11,.11-.24,.16-.41,.16h-1.33c-.16,0-.3-.06-.41-.16Z"></path><path class="u" d="M55.92,56.47c-.11-.11-.16-.24-.16-.41v-11.83c0-.16,.05-.3,.16-.41,.11-.11,.24-.16,.41-.16h1.12c.16,0,.3,.05,.41,.16,.11,.11,.16,.24,.16,.41v.88c.86-1.13,2.07-1.69,3.62-1.69,1.85,0,3.15,.76,3.92,2.29,.4-.7,.96-1.26,1.69-1.68s1.56-.63,2.47-.63c1.37,0,2.48,.47,3.34,1.4,.86,.93,1.3,2.28,1.3,4.04v7.21c0,.16-.05,.3-.16,.41-.11,.11-.24,.16-.41,.16h-1.17c-.16,0-.3-.05-.41-.16-.11-.11-.16-.24-.16-.41v-6.99c0-1.3-.27-2.23-.81-2.8-.54-.57-1.25-.85-2.14-.85-.78,0-1.46,.28-2.02,.86-.57,.57-.85,1.5-.85,2.78v6.99c0,.16-.05,.3-.16,.41-.11,.11-.24,.16-.41,.16h-1.17c-.16,0-.3-.05-.41-.16-.11-.11-.16-.24-.16-.41v-6.99c0-1.3-.28-2.23-.84-2.8s-1.26-.85-2.11-.85c-.78,0-1.46,.28-2.02,.86-.57,.57-.85,1.5-.85,2.76v7.02c0,.16-.05,.3-.16,.41s-.24,.16-.41,.16h-1.2c-.15,0-.28-.06-.39-.16Z"></path><path class="u" d="M80.63,60.97c-.11-.11-.16-.24-.16-.41v-16.57c0-.16,.05-.3,.16-.41,.11-.11,.24-.16,.41-.16h1.15c.16,0,.3,.05,.41,.16,.11,.11,.16,.24,.16,.41v1.1c.93-1.28,2.29-1.92,4.1-1.92s3.06,.55,3.93,1.65c.88,1.1,1.35,2.51,1.41,4.25,.01,.18,.03,.47,.03,.85s0,.67-.03,.85c-.07,1.71-.54,3.13-1.42,4.23-.88,1.11-2.19,1.66-3.92,1.66s-3.08-.63-4.04-1.87v5.79c0,.16-.05,.3-.15,.41s-.23,.16-.4,.16h-1.22c-.16-.02-.3-.07-.41-.18Zm8.29-7.45c.54-.73,.84-1.69,.88-2.9,.01-.16,.03-.41,.03-.73,0-3.15-1.17-4.72-3.5-4.72-1.15,0-2.01,.38-2.59,1.13s-.88,1.66-.94,2.71l-.03,.95,.03,.98c.03,.98,.35,1.84,.95,2.57s1.46,1.1,2.57,1.1c1.18,0,2.04-.37,2.59-1.11Z"></path><path class="u" d="M98.88,55.1c-.86-1.02-1.3-2.39-1.3-4.08v-7.04c0-.16,.05-.3,.16-.41,.11-.11,.24-.16,.41-.16h1.25c.16,0,.3,.05,.41,.16,.11,.11,.16,.24,.16,.41v6.92c0,2.48,1.08,3.72,3.24,3.72,1.05,0,1.88-.33,2.5-.99,.61-.66,.92-1.57,.92-2.74v-6.92c0-.16,.05-.3,.16-.41,.11-.11,.24-.16,.41-.16h1.25c.16,0,.3,.05,.4,.16,.1,.11,.15,.24,.15,.41v11.83c0,.16-.05,.3-.15,.41s-.23,.16-.4,.16h-1.17c-.16,0-.3-.05-.41-.16-.11-.11-.16-.24-.16-.41v-1.1c-.47,.63-1.04,1.11-1.69,1.44-.67,.32-1.49,.49-2.47,.49-1.58,0-2.8-.51-3.67-1.53Z"></path><path class="u" d="M115.91,56.47c-.11-.11-.16-.24-.16-.41v-16.57c0-.16,.05-.3,.16-.41,.11-.11,.24-.16,.41-.16h1.17c.16,0,.3,.05,.41,.16,.11,.11,.16,.24,.16,.41v16.57c0,.16-.05,.3-.16,.41s-.24,.16-.41,.16h-1.17c-.16,0-.3-.06-.41-.16Z"></path><path class="u" d="M126.25,56.07c-.79-.38-1.38-.8-1.77-1.29-.39-.48-.59-.88-.59-1.2,0-.16,.06-.3,.18-.39,.13-.09,.25-.14,.39-.14h1.12c.16,0,.32,.09,.45,.25,.4,.47,.83,.83,1.3,1.1,.47,.26,1.09,.4,1.87,.4,.86,0,1.57-.17,2.11-.51s.81-.81,.81-1.41c0-.4-.11-.73-.34-.99-.22-.26-.61-.48-1.15-.67-.54-.19-1.35-.4-2.41-.63-1.45-.32-2.47-.77-3.09-1.37-.61-.6-.91-1.37-.91-2.32,0-.63,.18-1.23,.56-1.81s.92-1.04,1.65-1.4,1.6-.53,2.61-.53,1.97,.17,2.72,.52,1.31,.76,1.69,1.23,.56,.87,.56,1.19c0,.15-.05,.28-.16,.38-.11,.1-.24,.15-.39,.15h-1.05c-.2,0-.37-.09-.5-.25-.26-.32-.49-.56-.69-.74s-.47-.33-.82-.46-.81-.2-1.36-.2c-.8,0-1.42,.17-1.85,.51-.44,.34-.65,.78-.65,1.34,0,.35,.09,.65,.28,.88,.18,.24,.53,.46,1.06,.66s1.29,.41,2.28,.63c1.58,.33,2.7,.81,3.36,1.44,.66,.63,.99,1.42,.99,2.39,0,.71-.21,1.37-.63,1.95s-1.03,1.04-1.83,1.37-1.77,.5-2.88,.5c-1.17,0-2.16-.2-2.94-.57Z"></path></g><g><path class="r" d="M141.77,43.61c-.08-.08-.08-.16-.13-.53-.02-.16-.06-.33-.07-.49-.09-.8-.63-2.74-.63-2.74-.36-1.27-.16-.73-.91-3.65-.13-.52-.41-1.57-.71-2.68-.63-2.29-.87-2.95-1.52-5.17-.42-1.42-.99-3.4-1.6-5.94-.34-1.42-.65-2.72-.95-4.5-.36-2.11-.46-3.48-.51-4.44-.08-1.74,.02-2.67,.15-3.38,.05-.31,.2-1.06,.51-1.98,.19-.57,.51-1.52,1.19-2.61,.57-.91,1.12-1.52,1.54-1.97,.4-.44,.94-1.01,1.74-1.6,.64-.47,1.69-1.24,3.26-1.64,.65-.16,1.64-.41,2.9-.2,1.23,.2,2.08,.73,2.59,1.06,1.06,.67,1.68,1.4,2.29,2.15,.49,.6,1.45,1.77,2.15,3.59,.61,1.57,.73,2.87,.79,3.61,.09,1.01,.04,1.73-.04,3.04-.03,.42-.13,1.82-.45,3.81-.12,.75-.36,1.85-.83,4.06-.57,2.68-.74,3.32-.85,3.73-.09,.32-.12,.44-.81,2.76-.58,1.96-.88,2.94-.93,3.14-.54,1.87-.72,2.68-1.15,4.34-.73,2.76-1.25,3.94-1.6,5.53-.26,1.17-.39,1.75-.42,1.93-.03,.2-.11,.39-.13,.59-.01,.16-.01,.32-.11,.37-.03,.01-.04,0-.18,0-.18,0-.2,.01-.23-.01-.01-.01-.04-.04-.01-.28,.01-.11,.03-.18,.05-.31,.03-.14,.04-.21,.05-.26,.05-.3,.19-.62,.24-.79,.08-.26,.14-.47,.24-.89,.18-.7,.27-1.19,.34-1.56,.12-.56,.26-1.09,.57-2.17,.24-.88,.3-1,.85-2.84,.32-1.08,.49-1.62,.65-2.19,.11-.38,.3-1.07,.75-2.8,.34-1.32,.38-1.49,.69-2.7,.81-3.15,.89-3.26,1.19-4.64,.26-1.17,.2-1.12,.55-2.68,.39-1.76,.47-1.88,.63-2.82,.22-1.3,.28-2.31,.32-3.14,.07-1.21,.1-1.83,.02-2.72-.08-.92-.24-1.58-.57-2.9-.34-1.37-.51-2.06-.83-2.7-.47-.92-1.06-1.58-1.46-2.02-.33-.37-.76-.84-1.4-1.32-.57-.43-1.56-1.17-3.04-1.42-.22-.04-1.37-.22-2.76,.16-.93,.25-1.53,.64-2.47,1.23-.68,.44-1.4,.9-2.19,1.72-.78,.81-1.21,1.56-1.5,2.04-.6,1.04-.91,1.93-1.13,2.57-.15,.42-.32,.94-.47,1.62-.26,1.2-.24,2.12-.22,3.19,.03,1.44,.18,2.53,.32,3.49,.07,.46,.21,1.2,.49,2.66,.39,2.02,.58,3.05,.77,3.83,.19,.8,.38,1.47,.77,2.8,.61,2.12,.8,2.56,1.28,4.32,.26,.95,.2,.84,.53,2.04,.3,1.14,.36,1.29,1.02,3.59,.59,2.06,.65,2.33,1.11,3.95,.09,.33,.17,.67,.28,1,0,0,.48,1.44,.65,2.44,.01,.09,.04,.26-.06,.38-.13,.13-.45,.12-.6-.04Z"></path><path class="s" d="M136.78,12.68c-.07,.32-.14,.69-.2,.69-.11,0-.14-1.05-.04-1.61,.03-.15,.06-.32,.06-.32,.06-.28,.11-.49,.14-.59,.12-.42,.24-.76,.34-1.04,.13-.34,.37-.94,.73-1.6,.32-.57,.87-1.57,1.93-2.53,.35-.32,1.01-.92,2.04-1.38,.39-.17,.9-.4,1.62-.49,.16-.02,.98-.11,2.02,.18,1.68,.47,2.74,1.57,3.42,2.31,.98,1.06,1.49,2.05,1.76,2.59,.17,.34,.97,1.97,1.26,4.38,.16,1.38,.09,2.38-.06,4.1-.08,.9-.22,2.17-.65,4.56-.59,3.24-1.21,5.78-1.89,8.47-.51,2.06-.91,3.55-.91,3.55-.36,1.35-.55,2.01-.89,3.38-.28,1.11-.51,2.06-.51,2.06-.16,.64-.2,.9-.34,1.46-.1,.38-.15,.53-.34,1.23-.14,.51-.2,.78-.21,.8-.1,.53-.07,.79-.23,.86-.13,.06-.34-.01-.4-.15-.09-.16,.09-.34,.28-.9,.03-.08,0-.03,.13-.44,.15-.52,.19-.65,.28-.97,.11-.38,.17-.66,.26-1.04,.11-.48,.18-.83,.4-1.87,.15-.73,.24-1.22,.27-1.37,.28-1.38,.63-2.44,.85-3.28,.47-1.75,.78-3.06,1.11-4.44,.93-3.86,1.45-6.63,1.56-7.21,.03-.16,.32-1.71,.63-3.79,.45-3.01,.44-3.77,.38-4.42-.15-1.66-.61-2.88-.85-3.49-.32-.82-.82-2.07-1.95-3.36-1.01-1.17-2-1.77-2.31-1.95-.62-.36-1.17-.68-1.98-.79-1.25-.17-2.24,.27-2.66,.47-.91,.42-1.43,.98-2.17,1.76-.41,.44-1.08,1.16-1.66,2.23-.77,1.45-1.15,3.48-1.25,3.94Z"></path><path class="m" d="M142.45,43.42c-.56-2.22-.82-3.17-.94-3.61-.01-.05-.12-.42-.26-.91-.1-.36-.18-.63-.23-.82-.24-.89-.2-.95-.42-1.77-.04-.15-.09-.32-.2-.73-.05-.18-.11-.38-.23-.78,0-.02-.15-.5-.24-.8-.02-.06-.03-.13-.05-.2-.12-.45-.09-.33-.39-1.51-.47-1.81-.51-1.91-.84-3.19-.15-.59-.21-.84-.38-1.48-.18-.72-.24-.88-.38-1.42-.22-.84-.39-1.48-.55-2.26-.12-.57-.21-1.12-.39-2.22-.11-.69-.12-.76-.32-2.06-.29-1.87-.31-1.91-.38-2.42-.16-1.27-.22-2.25-.24-2.57-.03-.49-.11-2.16,.08-4.35,.09-1.05,.14-1.59,.32-2.26,.3-1.09,.78-1.88,1.09-2.41,.49-.82,.98-1.4,1.33-1.81,.42-.5,.68-.81,1.11-1.19,.9-.79,1.75-1.19,2.14-1.37,.38-.16,.8-.34,1.4-.45,.77-.13,1.38-.06,1.85,0,.3,.04,.97,.14,1.78,.45,1.21,.46,2.01,1.08,2.51,1.48,.46,.37,.96,.76,1.46,1.43,.6,.79,.88,1.52,1.08,2.06,.42,1.11,.56,2.14,.53,2.15-.02,0-.12-.42-.31-.93-.4-1.09-.92-1.85-1.19-2.23-.67-.96-1.33-1.58-1.54-1.77-.4-.36-.96-.87-1.85-1.33-1.06-.55-1.97-.7-2.16-.73-.49-.08-1.42-.22-2.55,.08-.82,.22-1.37,.57-1.88,.89-.37,.24-1,.68-1.66,1.38-.57,.61-.91,1.14-1.27,1.73-.37,.6-.82,1.32-1.17,2.35-.15,.42-.46,1.42-.54,2.74-.01,.24,0,.68,.01,1.56,.01,.71,.03,1.52,.08,2.58,0,0,.07,1.6,.19,2.96,.05,.52,.23,2.53,1.2,7.01,.22,1.04,.73,3.05,1.73,7.07,.06,.24,.18,.71,.42,1.66,.34,1.36,.41,1.6,.51,1.96,.2,.69,.24,.72,.36,1.23,.13,.51,.16,.72,.32,1.35,.13,.51,.24,.88,.26,.96,.15,.58,.41,1.77,.8,4.48Z"></path><path class="o" d="M142.84,43.59c.02-.15-.01-.31-.01-.47-.01-1.3-.44-3.18-.44-3.18-.03-.13-.26-1.6-.79-4.54-.61-3.44-.63-3.61-.87-4.82-.32-1.63-.33-1.56-.71-3.49-.45-2.29-.73-3.9-.79-4.25-.3-1.73-.45-2.59-.61-3.81-.11-.79-.32-2.55-.45-4.82-.14-2.55-.04-3.51,.06-4.17,.15-.96,.36-1.71,.51-2.19,.26-.82,.57-1.82,1.32-2.94,.3-.44,.86-1.27,1.87-2.04,.67-.51,1.35-1.04,2.39-1.19,1.13-.17,2.02,.18,2.33,.3,.85,.35,1.35,.86,1.89,1.4,.33,.34,1.04,1.11,1.66,2.35,.2,.4,.73,1.52,1.07,3.61,.31,1.89,.25,3.3,.16,5.35-.02,.44-.11,2.34-.49,4.93-.21,1.46-.42,2.5-.71,3.89-.4,1.97-.83,3.69-1.66,7.06-.5,2.03-1.07,4.3-1.07,4.3-.65,2.6-.82,3.23-.95,3.79-.02,.11-.05,.24-.09,.42-.05,.25-.13,.67-.3,1.77-.07,.49-.11,.73-.12,.82-.03,.33-.05,.63-.1,1.2-.05,.49-.08,.75-.26,.83-.05,.03-.15,.05-.19,0-.06-.05,0-.17,.03-.38,0-.03,.01-.15,.03-.4,.02-.33,.03-.56,.03-.65,.02-.51,.11-1,.22-1.71,.05-.27,.08-.48,.13-.78,.07-.34,.13-.61,.18-.84,.2-.9,.22-.84,.35-1.44,.13-.55,.18-.86,.39-1.81h0c.8-3.5,.69-3.15,1.04-4.58,.65-2.73,.79-2.88,1.26-4.99,.16-.73,.35-1.71,.71-3.65,.98-5.25,1.09-6.24,1.15-7.31,.08-1.46,.04-2.6,0-3.28-.11-1.81-.2-3.24-.85-4.93-.7-1.82-1.61-2.83-1.83-3.06-.61-.67-1.28-1.37-2.39-1.64-1.09-.27-2,.01-2.33,.12-1.43,.47-2.2,1.53-2.82,2.37-1.35,1.84-1.68,3.72-1.89,4.85-.22,1.23-.23,2.24-.24,2.98,0,.51,0,1.15,.18,3.28,.11,1.29,.2,2.32,.34,3.61,.4,3.42,.97,6.3,1.81,10.5,.34,1.69,.53,2.66,.83,4.08,1.13,5.33,1.29,7.35,1.44,8.08,.01,.05,.05,.22,.07,.46,.02,.18,0,.19,.01,.7,0,.36,0,.52-.08,.56-.03,.01-.03,0-.13,0-.2,0-.26,.03-.3,0-.03-.06-.01-.13,0-.21Z"></path><path class="q" d="M142.92,39.65s-.09-.75-.38-2.22c-.16-.8-.29-1.3-.36-1.95-.03-.25-.08-.84-.11-1.2-.01-.13-.01-.22-.02-.3-.01-.26-.01-.44-.04-.98-.1-1.69-.24-2.91-.28-3.36-.33-3.03-.43-6.69-.47-8.23-.05-1.76-.05-3.04-.04-4.17,0-3.94,.15-5.76,.32-7.23,.13-1.12,.3-2.2,.69-3.47,.16-.51,.67-2.1,1.78-3.34,.36-.4,.8-.78,1.42-.95,.2-.05,.57-.15,.91-.06,.24,.07,.9,.34,1.42,2.57,.13,.57,.34,1.62,.36,4.72,0,.91,.01,1.73-.04,2.86-.05,1.03-.11,1.6-.28,3.42-.2,2.2-.15,1.81-.32,3.61-.26,2.8-.36,3.36-.59,5.78-.2,2.06-.15,1.75-.4,4.6-.32,3.47-.44,4.3-.73,7.7,0,0-.28,2.23-.28,3.71,0,.07,0,.39-.01,.82-.01,.55-.03,.47-.03,.73,0,.64,.07,1.06-.08,1.12-.03,0-.03,0-.26,0-.15,0-.15,0-.16,0-.15-.07-.06-.5,0-1.19,.01-.16,.02-.33,.04-.49,.07-.76,.07-1.41,.08-1.85,.02-.83,.08-1.53,.2-2.92,.11-1.24,.2-1.85,.32-2.92,.26-2.21,.22-2.55,.63-7.27,.08-.94,.15-1.66,.24-2.7,.34-3.63,.48-4.38,.69-6.99,.08-.98,.07-1.1,.2-2.74,.17-2.22,.24-2.72,.28-3.44,.15-2.37-.2-2.25-.2-5.1,0,0,0-.75-.24-1.95-.23-1.14-.44-1.4-.69-1.54-.49-.26-1.1-.01-1.17,.02-.27,.12-.45,.29-.63,.49-.75,.82-1.09,1.54-1.09,1.54-.75,1.56-1.09,3.16-1.09,3.16-.15,.71-.32,1.66-.57,4.72-.14,1.69-.2,2.53-.24,3.59-.04,1.13-.05,2.35,.06,5.39,.15,3.87,.25,6.58,.59,9.91,.09,.82,.22,2,.36,3.79,.15,1.75,.33,4.33,.24,4.33Z"></path><path class="p" d="M143.65,43.79s0-.07,0-.13c0-.13,0-.24,0-.29v-.26c0-.91,0-1.37,0-1.37-.01-.86-.1-2.06-.16-3.12-.05-.76-.09-1.33-.16-2.46-.13-1.79-.16-2.14-.23-3.17-.09-1.33-.08-1.48-.19-3.51-.16-2.96-.24-4.44-.4-6.19-.12-1.26-.18-1.58-.26-2.73-.07-1.06-.11-1.93-.16-3.38-.05-1.15-.07-2.02-.08-2.57-.02-.65-.11-4.37,0-8.19,0,0,0-.26,.66-3.03,.09-.37,.24-.96,.65-1.09,.2-.07,.53-.03,.77,.13,.12,.08,.18,.17,.22,.22,.74,1.04,1.02,2.31,1.02,2.31,.36,1.64,.53,2.46,.54,2.49,.32,1.91,.44,3.38,.47,3.88,.08,1.13,.09,1.97,.09,2.7,.02,1.87-.06,3.3-.09,3.86-.28,4.91-.61,8.92-.62,10.56,0,.2,0,.67-.04,1.31-.03,.41-.05,.59-.13,1.38-.04,.46-.05,.67-.09,1.02-.08,.98-.12,1.23-.22,2.33-.15,1.68-.14,1.87-.27,3.16-.05,.47-.07,.7-.11,1.17-.04,.47-.07,.78-.08,1.08,0,.08-.03,.46-.03,.47-.01,.24-.02,.36-.02,.4-.02,.38-.03,.58-.03,.78,0,.27,.01,.21,.02,.52,0,.15,0,.27,0,.73v.23c0,.13,.01,.16,.01,.26,0,.11,0,.1-.01,.23,0,.17,0,.23-.03,.26-.02,.01-.03,0-.12,0h-.15c-.2,0-.21,.01-.23,0-.05-.04-.03-.09-.02-.33v-.28c0-.15,0-.26,0-.28,.03-.9,.05-1.49,.05-1.49,.03-.5,.02-.59,.04-1.22,.05-1.37,.18-2.83,.22-3.2,.19-1.95,.32-3.9,.49-5.85,.3-3.5,.44-6.11,.62-9.67,.11-2.06,.15-3.76,.23-7.16,.01-.65,.05-2.47-.16-4.75-.1-1.03-.2-1.61-.26-1.95,0,0-.32-1.76-1.03-3.57-.11-.28-.12-.23-.24-.55-.13-.32-.15-.46-.3-.54-.13-.07-.3-.09-.39-.01-.04,.04-.05,.08-.08,.23-.03,.11-.07,.22-.09,.32-.08,.32-.32,1.1-.35,1.2-.47,1.6-.55,5.19-.55,5.19-.03,1.13-.06,3.54,.11,6.48,.05,.87,.13,2,.16,2.47,.11,1.6,.2,2.6,.27,3.51,.14,1.71,.11,1.61,.42,6.13,.28,4.09,.27,3.76,.34,4.95,.17,3.05,.12,3.6,.26,4.99,0,0,.14,1.42,.15,2.41,0,.12,0,.43,0,.91,0,.29,0,.4,0,.61,0,.28,0,.31,0,.53s0,.27,.01,.53c0,.19,0,.2,0,.25,.01,.08,.03,.11,.01,.14-.03,.03-.1,0-.23,0-.09,.01-.16,.01-.22,.01Z"></path></g><path class="n" d="M141.16,43.44c.32,0,.57,0,.76,0h4.7s.14,0,.23,0c.01,0,.04,0,.08,0h.11c.07,0,.09,0,.11,0,0,0,0,.02,0,.06,0,.03,0,.03,0,.07v.32c0,.11,0,.21,0,.32,0,.23,0,.28-.04,.3-.06,.04-.13-.03-.18,.02-.03,.03-.03,.07-.03,.15v.28s0,.96,0,2.8c0,1.56,0,2.34,0,2.83,0,.55,0,.98,0,1.88v2.75c0,2.06,.18,4.17,.22,5.03,0,.03,0,.18,.01,.38,0,.22,.02,.4,.03,.52,.02,.37,.03,.63,.05,.92,.07,1.31,.06,1.93,.09,3.53,.05,2.19,.09,2.46,.13,4.93,.01,.83,.02,1.59-.03,2.59-.05,.75-.09,1.43-.24,2.29-.3,1.68-.62,2.43-.82,2.81-.22,.41-.41,.65-.62,.9-.49,.61-.76,.72-.85,.75-.1,.03-.43,.15-.8,.03-.2-.07-.32-.17-.56-.38-.06-.05-.33-.3-.63-.72-.06-.09-.26-.38-.45-.8-.05-.11-.13-.3-.33-.94-.16-.53-.29-.98-.37-1.27-.15-.53-.13-.49-.3-1.14-.16-.61-.18-.65-.23-.88-.08-.42-.11-.75-.13-1.06-.03-.3-.03-.5-.04-.9-.02-1.03-.01-1.43-.01-1.43,0-1.04,0-2.16,0-3.26,0-2.28-.05-2.35,.01-3.13,.03-.39,.08-.86,.11-1.62,.03-.69,.01-1,.03-1.58,.01-.69,.04-.72,.14-2.39,.09-1.48,.13-2.24,.14-3.16,0-.3,0-.24,0-1.27v-2.02c0-1.43,0-1.56,0-2.85,0-.27,0-1.84,.01-2.74,0-.46,0-.63,0-.93,0-.07,.01-.35,0-.55,0-.03,0-.05,0-.09,0-.19,.05-.24,.03-.3-.05-.07-.22,.03-.3-.05-.03-.03-.03-.06-.01-.34,0-.13,.01-.18,.02-.24,0-.11,0-.24-.01-.42Z"></path><g><path class="u" d="M171.5,55.05c-1.02-1.06-1.58-2.5-1.68-4.33l-.03-.85,.03-.82c.12-1.8,.69-3.23,1.71-4.29s2.37-1.6,4.06-1.6c1.85,0,3.28,.59,4.29,1.76s1.52,2.76,1.52,4.75v.42c0,.16-.05,.3-.16,.41-.11,.11-.24,.16-.41,.16h-8.64v.22c.05,1.08,.38,2,.99,2.76,.61,.76,1.41,1.13,2.41,1.13,.76,0,1.39-.15,1.89-.46,.49-.31,.85-.63,1.09-.96,.15-.2,.26-.32,.34-.36,.07-.04,.21-.06,.41-.06h1.22c.15,0,.28,.04,.38,.13s.15,.2,.15,.35c0,.37-.23,.8-.69,1.33s-1.1,.96-1.93,1.33c-.82,.38-1.77,.56-2.84,.56-1.71,.01-3.08-.51-4.1-1.58Zm7.52-6.1v-.07c0-1.15-.31-2.08-.94-2.81s-1.46-1.09-2.51-1.09-1.88,.36-2.49,1.09c-.61,.73-.91,1.66-.91,2.81v.07h6.84Z"></path><path class="u" d="M157.73,55.51l-4.62-11.58-.05-.25c0-.15,.05-.28,.15-.38s.22-.15,.38-.15h1.2c.28,0,.49,.14,.63,.42l3.79,9.84,3.79-9.84c.15-.28,.35-.42,.6-.42h1.23c.13,0,.25,.05,.36,.15,.11,.1,.16,.22,.16,.38l-.05,.25-4.64,11.58c-.18,.42-.49,.63-.92,.63h-1.07c-.44,0-.75-.21-.93-.63Z"></path></g><g><path class="u" d="M170.88,78.19c-1.01-1.01-1.54-2.42-1.61-4.23l-.03-1,.03-1c.07-1.81,.61-3.22,1.61-4.23,1.01-1.01,2.4-1.51,4.18-1.51,1.2,0,2.22,.22,3.05,.65s1.45,.96,1.86,1.6c.41,.63,.63,1.27,.66,1.9,.02,.16-.03,.3-.15,.4-.12,.1-.26,.15-.42,.15h-1.2c-.16,0-.29-.03-.38-.1s-.16-.2-.25-.4c-.28-.8-.69-1.37-1.2-1.71-.51-.34-1.17-.51-1.95-.51-1.03,0-1.85,.32-2.46,.96s-.94,1.62-.99,2.93l-.03,.9,.03,.85c.05,1.33,.38,2.31,.98,2.95s1.42,.95,2.47,.95c.78,0,1.43-.17,1.95-.51s.92-.91,1.2-1.71c.09-.2,.16-.34,.25-.41s.21-.11,.38-.11h1.2c.16,0,.31,.05,.42,.16,.12,.11,.16,.24,.15,.41-.03,.61-.25,1.25-.66,1.89s-1.02,1.18-1.85,1.61c-.82,.44-1.85,.65-3.06,.65-1.78,0-3.17-.51-4.18-1.52Z"></path><path class="u" d="M186.81,79.28c-.11-.11-.16-.24-.16-.41v-16.57c0-.16,.05-.3,.16-.41,.11-.11,.24-.16,.41-.16h1.25c.16,0,.3,.05,.41,.16s.16,.24,.16,.41v5.82c.48-.61,1.05-1.09,1.69-1.41,.65-.32,1.46-.49,2.42-.49,1.6,0,2.84,.51,3.73,1.54s1.33,2.38,1.33,4.08v7.04c0,.16-.05,.3-.16,.41s-.24,.16-.41,.16h-1.25c-.16,0-.3-.05-.41-.16s-.16-.24-.16-.41v-6.92c0-1.18-.29-2.1-.86-2.74s-1.4-.98-2.49-.98-1.89,.33-2.51,.99-.94,1.57-.94,2.73v6.92c0,.16-.05,.3-.16,.41s-.24,.16-.41,.16h-1.25c-.16,0-.3-.05-.4-.16Z"></path><path class="u" d="M204.54,78.11c-1.02-1.06-1.58-2.5-1.69-4.33l-.03-.85,.03-.82c.12-1.8,.69-3.23,1.71-4.29,1.02-1.07,2.37-1.6,4.06-1.6,1.85,0,3.28,.59,4.29,1.76s1.52,2.76,1.52,4.75v.42c0,.16-.05,.3-.16,.41-.11,.11-.24,.16-.41,.16h-8.64v.22c.05,1.08,.38,2,.99,2.76,.61,.76,1.41,1.13,2.41,1.13,.76,0,1.39-.15,1.89-.46,.49-.31,.85-.63,1.09-.96,.15-.2,.26-.32,.34-.36,.07-.04,.21-.06,.41-.06h1.22c.15,0,.28,.04,.38,.13s.15,.2,.15,.35c0,.37-.23,.8-.69,1.33s-1.1,.96-1.92,1.33c-.82,.38-1.77,.56-2.84,.56-1.71,.01-3.08-.51-4.1-1.58Zm7.52-6.1v-.07c0-1.15-.31-2.08-.94-2.81s-1.46-1.09-2.51-1.09-1.88,.36-2.49,1.09c-.61,.73-.91,1.66-.91,2.81v.07h6.84Z"></path><path class="u" d="M220.11,79.28c-.11-.11-.16-.24-.16-.41v-11.83c0-.16,.05-.3,.16-.41,.11-.11,.24-.16,.41-.16h1.17c.16,0,.3,.05,.41,.16s.16,.24,.16,.41v1.1c.48-.61,1.06-1.09,1.71-1.42,.66-.33,1.48-.5,2.46-.5,1.6,0,2.84,.51,3.73,1.54s1.34,2.38,1.34,4.08v7.04c0,.16-.05,.3-.16,.41s-.24,.16-.41,.16h-1.25c-.16,0-.3-.05-.41-.16s-.16-.24-.16-.41v-6.92c0-1.18-.28-2.1-.86-2.74-.57-.65-1.4-.98-2.49-.98s-1.88,.33-2.5,.99-.92,1.57-.92,2.73v6.92c0,.16-.05,.3-.16,.41s-.24,.16-.41,.16h-1.25c-.16,0-.3-.05-.41-.16Z"></path><path class="u" d="M156.86,75.06v-6.59h-1.95c-.16,0-.3-.05-.41-.16-.11-.11-.16-.24-.16-.41v-.85c0-.16,.05-.3,.16-.41,.11-.11,.24-.16,.41-.16h1.95v-4.17c0-.16,.05-.3,.16-.41,.11-.11,.24-.16,.41-.16h1.17c.16,0,.3,.05,.41,.16s.16,.24,.16,.41v4.17h3.09c.16,0,.3,.05,.41,.16s.16,.24,.16,.41v.85c0,.16-.05,.3-.16,.41-.11,.11-.24,.16-.41,.16h-3.09v6.42c0,.83,.14,1.46,.42,1.89s.75,.63,1.4,.63h1.52c.16,0,.3,.05,.41,.16s.16,.24,.16,.41v.9c0,.16-.05,.3-.16,.41s-.24,.16-.41,.16h-1.72c-2.63,0-3.94-1.46-3.94-4.39Z"></path></g><ellipse class="t" cx="149.28" cy="95.38" rx="149.28" ry="15.44"></ellipse></g></g></g></svg>