<?xml version="1.0" encoding="utf-8"?>
<!-- Generator: Adobe Illustrator 26.1.0, SVG Export Plug-In . SVG Version: 6.00 Build 0)  -->
<svg version="1.1" id="Lager_1" xmlns="http://www.w3.org/2000/svg" xmlns:xlink="http://www.w3.org/1999/xlink" x="0px" y="0px" viewBox="0 0 841.89 595.28" style="enable-background: new 0 0 841.89 595.28" xml:space="preserve">
<style>.st0 {
  fill: url("#SVGID_1_");
  stroke: #fff;
  stroke-miterlimit: 10;
}

.st1 {
  fill: #f0e8e6;
}

</style>
<g>
	<linearGradient id="SVGID_1_" gradientUnits="userSpaceOnUse" x1="405.8058" y1="268.8948" x2="455.9802" y2="311.8275">
		<stop offset="0" style="stop-color: #fff"></stop>
		<stop offset="0.0504" style="stop-color: #f4dddd"></stop>
		<stop offset="0.1417" style="stop-color: #e3a6a5"></stop>
		<stop offset="0.2306" style="stop-color: #d47877"></stop>
		<stop offset="0.3148" style="stop-color: #c95453"></stop>
		<stop offset="0.3934" style="stop-color: #c13a39"></stop>
		<stop offset="0.464" style="stop-color: #bc2a29"></stop>
		<stop offset="0.5199" style="stop-color: #ba2524"></stop>
		<stop offset="1" style="stop-color: #ba2423"></stop>
	</linearGradient>
	<circle class="st0" cx="427.68" cy="287.61" r="22.39"></circle>
	<g>
		<path class="st1" d="M427.67,281.25h10.98h1.01c0,0,1.19-0.47,1.19-1.1s0.03-0.63,0.03-0.63v-0.36c0,0-0.66-0.98-1.26-0.98
			c-0.59,0-4.17,0-4.17,0l-19.86,0.03c0,0-1.13,0.46-1.13,1.12c0,0.66,0,0.66,0,0.66s0.38,1.26,1.31,1.26
			S427.67,281.25,427.67,281.25z"></path>
		<path class="st1" d="M427.66,289.14h10.98h1.01c0,0,1.19-0.47,1.19-1.1s0.03-0.63,0.03-0.63v-0.36c0,0-0.66-0.98-1.26-0.98
			c-0.59,0-4.17,0-4.17,0l-19.86,0.03c0,0-1.13,0.46-1.13,1.12s0,0.66,0,0.66s0.38,1.26,1.31,1.26
			C416.71,289.14,427.66,289.14,427.66,289.14z"></path>
		<path class="st1" d="M427.66,297.04h10.98h1.01c0,0,1.19-0.47,1.19-1.1s0.03-0.62,0.03-0.62v-0.36c0,0-0.66-0.98-1.26-0.98
			c-0.59,0-4.17,0-4.17,0L415.6,294c0,0-1.13,0.46-1.13,1.12s0,0.66,0,0.66s0.38,1.26,1.31,1.26
			C416.71,297.04,427.66,297.04,427.66,297.04z"></path>
	</g>
</g>
</svg>
